<svg width="27" height="27" viewBox="0 0 27 27" fill="none" xmlns="http://www.w3.org/2000/svg">
<g clip-path="url(#clip0_545_642)">
<path d="M20.1765 1.29325L20.1765 1.29327L20.1797 1.29639L24.2279 5.26654L24.2298 5.26844L24.2306 5.26919C24.2308 5.26939 24.231 5.2696 24.2312 5.26981C24.4371 5.476 24.553 5.75701 24.553 6.04952V17.0547C24.553 18.5218 24.1971 19.8762 23.4969 21.085L23.4967 21.0855C22.8078 22.2779 21.8397 23.2889 20.6112 24.0881C20.2502 24.3218 19.3753 24.6927 18.4641 25.0308C17.5556 25.3678 16.7115 25.6355 16.4275 25.6862C15.7222 25.8075 15.0454 25.8709 14.4193 25.8709C13.5916 25.8709 12.8196 25.7628 12.1202 25.5542C11.1076 25.2496 10.2577 24.7511 9.5857 24.0755L9.58573 24.0755L9.58158 24.0714L5.59838 20.1665C5.59832 20.1664 5.59826 20.1663 5.5982 20.1663C5.37708 19.9487 5.15623 19.6951 4.9657 19.4291L4.96569 19.4291C4.2414 18.4179 3.85955 17.144 3.85955 15.6238V4.61865C3.85955 4.08542 4.24484 3.62656 4.77286 3.53235C4.773 3.53233 4.77315 3.5323 4.7733 3.53227L7.41826 3.06736C7.4184 3.06734 7.41855 3.06731 7.41869 3.06729C7.48273 3.05617 7.54606 3.05073 7.60896 3.05073C7.89935 3.05073 8.18018 3.16396 8.3893 3.37309L14.1011 9.08485L14.7515 9.73524L14.8835 8.82497L15.8218 2.35476L15.8221 2.35266C15.8879 1.88317 16.2509 1.50803 16.7199 1.42521C16.7199 1.4252 16.72 1.42519 16.72 1.42518L19.2054 0.987507C19.2056 0.987483 19.2057 0.987458 19.2059 0.987434C19.2699 0.976322 19.3332 0.970877 19.3961 0.970877C19.6865 0.970877 19.9673 1.08411 20.1765 1.29325Z" fill="#152322" stroke="#129168" stroke-width="0.922222"/>
<path d="M15.501 12.2682L12.002 13.6874L13.9176 20.1732C14.6565 19.9191 15.3368 19.5907 15.9623 19.1841C17.0453 18.4805 17.8897 17.6047 18.4956 16.5569C19.1017 15.5092 19.4026 14.3481 19.4026 13.0775V2.07227L16.9162 2.51012L15.501 12.2682Z" fill="#129168"/>
<path d="M10.8037 10.0831L7.60962 4.15234L4.96289 4.61758V15.6229C4.96289 16.8934 5.26392 17.949 5.86208 18.7856C6.46023 19.6222 7.30468 20.2009 8.38761 20.5214C9.47054 20.8459 10.7372 20.8772 12.1877 20.6231C12.6685 20.5371 13.126 20.4276 13.5677 20.2907L6.53451 13.9027L10.8076 10.0831H10.8037Z" fill="#129168"/>
</g>
<defs>
<clipPath id="clip0_545_642">
<rect width="25.8222" height="25.8222" fill="white" transform="translate(0.978516 0.509766)"/>
</clipPath>
</defs>
</svg>
